<svg xmlns="http://www.w3.org/2000/svg" viewBox="0 0 420 300" role="img" aria-label="pixel worker at desk">
  <rect width="420" height="300" fill="none"/>

  <ellipse cx="186" cy="286" rx="144" ry="14" fill="#a9b6b0" opacity="0.45"/>

  <rect x="64" y="142" width="70" height="88" fill="#7c848e" stroke="#1d2227" stroke-width="6"/>
  <rect x="80" y="228" width="82" height="26" rx="8" fill="#13181d" stroke="#1d2227" stroke-width="6"/>
  <rect x="108" y="250" width="18" height="38" fill="#5f6771" stroke="#1d2227" stroke-width="6"/>
  <rect x="88" y="282" width="58" height="14" rx="4" fill="#3f474f" stroke="#1d2227" stroke-width="6"/>

  <rect x="214" y="162" width="168" height="18" fill="#c89558" stroke="#1d2227" stroke-width="6"/>
  <rect x="226" y="180" width="12" height="88" fill="#26303a"/>
  <rect x="356" y="180" width="12" height="88" fill="#26303a"/>

  <rect x="252" y="106" width="98" height="72" fill="#111820" stroke="#0f1419" stroke-width="6"/>
  <rect x="262" y="116" width="78" height="52" fill="#f4fdff" stroke="#89b9d2" stroke-width="4"/>
  <path d="M269 128 L335 136" stroke="#c5d8e4" stroke-width="6"/>
  <rect x="292" y="178" width="18" height="16" fill="#1f2a35"/>
  <rect x="270" y="194" width="62" height="8" fill="#4d5863"/>

  <rect x="265" y="176" width="70" height="12" fill="#6b7680" stroke="#1f2730" stroke-width="4"/>
  <rect x="270" y="181" width="60" height="4" fill="#29323c"/>

  <rect x="124" y="44" width="86" height="64" rx="8" fill="#ffcd98" stroke="#1a1e23" stroke-width="6"/>
  <path d="M108 46 L136 22 L196 22 L220 40 L220 82 L196 104 L128 104 L108 86 Z" fill="#11161c" stroke="#1a1e23" stroke-width="6"/>
  <rect x="182" y="68" width="6" height="16" fill="#11161c"/>

  <rect x="106" y="104" width="116" height="78" rx="8" fill="#10b26f" stroke="#1a1e23" stroke-width="6"/>
  <rect x="212" y="146" width="60" height="16" rx="4" fill="#ffcd98" stroke="#1a1e23" stroke-width="5"/>
  <rect x="208" y="166" width="66" height="16" rx="4" fill="#ffcd98" stroke="#1a1e23" stroke-width="5"/>

  <rect x="140" y="180" width="30" height="70" fill="#143f76" stroke="#1a1e23" stroke-width="6"/>
  <rect x="174" y="184" width="34" height="66" fill="#143f76" stroke="#1a1e23" stroke-width="6"/>
  <rect x="190" y="248" width="34" height="14" fill="#7b3f16" stroke="#1a1e23" stroke-width="6"/>

  <rect x="246" y="214" width="32" height="12" fill="#26303a"/>
  <rect x="286" y="214" width="32" height="12" fill="#26303a"/>
</svg>
